<svg id="Layer_1" enable-background="new 0 0 512 512" height="512" viewBox="0 0 512 512" width="512" xmlns="http://www.w3.org/2000/svg"><g><g><g><path d="m411.711 143.5v154.56c0 29.5-23.933 53.5-53.343 53.5h-189.976l-45.968 54.1c-1.419 1.68-3.508 2.65-5.706 2.65s-4.287-.97-5.716-2.65l-45.968-54.1h-11.681c-29.419 0-53.353-24-53.353-53.5v-154.56c0-29.5 23.933-53.5 53.353-53.5h305.016c29.408 0 53.342 24 53.342 53.5z" fill="#ff6b81"/><path d="m411.711 143.5v154.56c0 29.5-23.933 53.5-53.343 53.5h-19.986c29.409 0 53.343-24 53.343-53.5v-154.56c0-29.5-23.933-53.5-53.343-53.5h19.986c29.409 0 53.343 24 53.343 53.5z" fill="#ed2061"/></g><path d="m253.612 479.66c0 17.83-14.48 32.34-32.277 32.34h-189.058c-17.797 0-32.277-14.51-32.277-32.34s14.48-32.33 32.277-32.33h2.808l16.868-23.3c1.409-1.95 3.667-3.11 6.066-3.11 2.408 0 4.667 1.16 6.076 3.11l16.868 23.3h140.371c17.798 0 32.278 14.5 32.278 32.33z" fill="#4dd4f7"/><path d="m512 32.34c0 17.83-14.48 32.33-32.277 32.33h-19.986l-16.868 23.3c-1.409 1.95-3.667 3.11-6.066 3.11-2.408 0-4.667-1.16-6.076-3.11l-16.858-23.3h-123.203c-17.797 0-32.277-14.5-32.277-32.33s14.48-32.34 32.277-32.34h189.057c17.797 0 32.277 14.51 32.277 32.34z" fill="#fbdf63"/><path d="m512 32.34c0 17.83-14.48 32.33-32.277 32.33h-19.986c17.797 0 32.277-14.5 32.277-32.33s-14.48-32.34-32.277-32.34h19.986c17.797 0 32.277 14.51 32.277 32.34z" fill="#ffa402"/><path d="m253.612 479.66c0 17.83-14.48 32.34-32.277 32.34h-19.986c17.797 0 32.277-14.51 32.277-32.34s-14.48-32.33-32.277-32.33h19.986c17.797 0 32.277 14.5 32.277 32.33z" fill="#00c2f3"/></g><path d="m260.622 176.744c-13.626-13.627-35.811-13.613-49.455.031l-3.534 3.533-3.534-3.533c-13.645-13.646-35.83-13.657-49.456-.031s-13.612 35.812.032 49.455l49.422 49.422c.938.938 2.209 1.465 3.536 1.465s2.598-.526 3.536-1.465l49.422-49.422c6.608-6.608 10.252-15.391 10.259-24.73.006-9.343-3.625-18.123-10.228-24.725z" fill="#fff"/><g fill="#d9f0f4"><path d="m359.084 226.805c-12.404 0-22.495 10.094-22.495 22.5 0 4.143 3.357 7.5 7.5 7.5s7.5-3.357 7.5-7.5c0-4.136 3.362-7.5 7.495-7.5 4.143 0 7.5-3.357 7.5-7.5s-3.357-7.5-7.5-7.5z"/><path d="m366.584 202.695c0-4.143-3.357-7.5-7.5-7.5-29.827 0-54.094 24.273-54.094 54.109 0 4.143 3.357 7.5 7.5 7.5s7.5-3.357 7.5-7.5c0-21.565 17.537-39.109 39.094-39.109 4.143 0 7.5-3.357 7.5-7.5z"/></g><g><path d="m436.76 421.526c-8.811 8.811-23.207 8.811-32.018 0l-13.994-14.008-93.571-93.614c-7.573-7.587-8.11-19.453-1.188-26.375 6.923-6.923 18.774-6.385 26.354 1.195l38.799 38.827c-7.573-7.587-8.111-19.452-1.188-26.375s18.774-6.385 26.354 1.195c-7.58-7.58-8.118-19.445-1.195-26.368 6.916-6.916 18.767-6.392 26.34 1.181-3.776-3.79-5.798-8.641-6.01-13.421-.226-4.78 1.379-9.482 4.837-12.94 6.915-6.915 18.774-6.385 26.354 1.195l54.638 54.666 14.121 14.135c8.811 8.811 8.811 23.221 0 32.032z" fill="#fdd9b4"/><path d="m436.76 421.526c-8.811 8.811-23.207 8.811-32.018 0l-13.994-14.008c8.818 8.676 23.108 8.627 31.869-.134l68.632-68.674c8.811-8.811 8.811-23.221 0-32.032l.021.007 14.121 14.135c8.811 8.811 8.811 23.221 0 32.032z" fill="#fab684"/></g></g></svg>