<svg id="svg" version="1.1" xmlns="http://www.w3.org/2000/svg" xmlns:xlink="http://www.w3.org/1999/xlink" width="400" height="400" viewBox="0, 0, 400,400"><g id="svgg"><path id="path0" d="M142.608 0.788 C 142.467 1.014,141.553 1.200,140.576 1.200 C 139.599 1.200,138.800 1.380,138.800 1.600 C 138.800 1.820,138.080 2.000,137.200 2.000 C 136.320 2.000,135.600 2.180,135.600 2.400 C 135.600 2.620,135.060 2.800,134.400 2.800 C 133.740 2.800,133.200 2.980,133.200 3.200 C 133.200 3.420,132.660 3.600,132.000 3.600 C 131.340 3.600,130.800 3.780,130.800 4.000 C 130.800 4.220,130.440 4.400,130.000 4.400 C 129.560 4.400,129.200 4.580,129.200 4.800 C 129.200 5.020,128.750 5.200,128.200 5.200 C 127.650 5.200,127.200 5.380,127.200 5.600 C 127.200 5.820,126.840 6.000,126.400 6.000 C 125.960 6.000,125.600 6.180,125.600 6.400 C 125.600 6.620,125.280 6.800,124.888 6.800 C 124.497 6.800,123.917 7.160,123.600 7.600 C 123.283 8.040,122.716 8.400,122.340 8.400 C 121.965 8.400,121.419 8.625,121.129 8.900 C 120.838 9.175,120.105 9.655,119.500 9.968 C 118.895 10.280,118.400 10.685,118.400 10.868 C 118.400 11.050,118.133 11.200,117.807 11.200 C 117.053 11.200,108.800 19.474,108.000 21.031 C 107.670 21.674,106.896 22.686,106.280 23.279 C 105.664 23.872,105.188 24.473,105.221 24.615 C 105.255 24.756,104.904 25.307,104.441 25.839 C 103.978 26.371,103.600 26.985,103.600 27.203 C 103.600 27.421,103.420 27.600,103.200 27.600 C 102.980 27.600,102.800 27.960,102.800 28.400 C 102.800 28.840,102.620 29.200,102.400 29.200 C 102.180 29.200,102.000 29.560,102.000 30.000 C 102.000 30.440,101.820 30.800,101.600 30.800 C 101.380 30.800,101.200 31.160,101.200 31.600 C 101.200 32.040,101.020 32.400,100.800 32.400 C 100.580 32.400,100.400 32.760,100.400 33.200 C 100.400 33.640,100.220 34.000,100.000 34.000 C 99.780 34.000,99.600 34.540,99.600 35.200 C 99.600 35.860,99.420 36.400,99.200 36.400 C 98.980 36.400,98.800 36.760,98.800 37.200 C 98.800 37.640,98.657 38.000,98.482 38.000 C 98.307 38.000,98.119 38.675,98.064 39.500 C 98.010 40.325,97.793 41.060,97.582 41.133 C 97.372 41.207,97.200 41.871,97.200 42.610 C 97.200 43.348,97.020 44.064,96.800 44.200 C 96.580 44.336,96.400 45.607,96.400 47.024 C 96.400 48.475,96.225 49.600,96.000 49.600 C 95.752 49.600,95.600 51.800,95.600 55.400 C 95.600 59.000,95.752 61.200,96.000 61.200 C 96.229 61.200,96.400 62.400,96.400 64.000 C 96.400 65.600,96.571 66.800,96.800 66.800 C 97.020 66.800,97.200 67.520,97.200 68.400 C 97.200 69.280,97.380 70.000,97.600 70.000 C 97.820 70.000,98.000 70.619,98.000 71.376 C 98.000 72.133,98.180 72.864,98.400 73.000 C 98.620 73.136,98.800 73.687,98.800 74.224 C 98.800 74.761,98.980 75.200,99.200 75.200 C 99.420 75.200,99.600 75.740,99.600 76.400 C 99.600 77.060,99.780 77.600,100.000 77.600 C 100.220 77.600,100.400 77.960,100.400 78.400 C 100.400 78.840,100.580 79.200,100.800 79.200 C 101.020 79.200,101.200 79.560,101.200 80.000 C 101.200 80.440,101.380 80.800,101.600 80.800 C 101.820 80.800,102.000 81.160,102.000 81.600 C 102.000 82.040,102.180 82.400,102.400 82.400 C 102.620 82.400,102.800 82.745,102.800 83.167 C 102.800 83.588,102.966 83.993,103.170 84.067 C 103.373 84.140,103.598 84.470,103.670 84.800 C 103.741 85.130,104.115 85.691,104.500 86.047 C 104.885 86.403,105.200 86.895,105.200 87.140 C 105.200 87.554,106.115 88.715,108.282 91.050 C 108.767 91.572,109.068 92.000,108.950 92.000 C 108.833 92.000,109.464 92.720,110.353 93.600 L 111.969 95.200 124.784 95.200 L 137.600 95.200 137.658 109.100 C 137.690 116.745,137.825 137.130,137.958 154.400 L 138.200 185.800 153.400 186.000 L 168.600 186.200 168.844 203.000 C 168.978 212.240,169.113 260.255,169.144 309.700 L 169.200 399.600 200.199 399.600 L 231.199 399.600 231.299 292.900 L 231.400 186.200 246.600 186.000 L 261.800 185.800 262.042 154.600 C 262.176 137.440,262.311 117.064,262.342 109.320 L 262.400 95.241 275.667 95.120 C 286.206 95.025,288.970 94.892,289.109 94.473 C 289.206 94.183,289.986 93.231,290.842 92.357 C 291.699 91.483,292.400 90.595,292.400 90.384 C 292.400 90.173,292.580 90.000,292.800 90.000 C 293.020 90.000,293.200 89.770,293.200 89.488 C 293.200 89.207,293.560 88.717,294.000 88.400 C 294.440 88.083,294.800 87.543,294.800 87.200 C 294.800 86.857,295.160 86.317,295.600 86.000 C 296.040 85.683,296.400 85.103,296.400 84.712 C 296.400 84.320,296.580 84.000,296.800 84.000 C 297.020 84.000,297.200 83.640,297.200 83.200 C 297.200 82.760,297.380 82.400,297.600 82.400 C 297.820 82.400,298.000 82.040,298.000 81.600 C 298.000 81.160,298.180 80.800,298.400 80.800 C 298.620 80.800,298.800 80.440,298.800 80.000 C 298.800 79.560,298.980 79.200,299.200 79.200 C 299.420 79.200,299.600 78.840,299.600 78.400 C 299.600 77.960,299.780 77.600,300.000 77.600 C 300.220 77.600,300.400 77.060,300.400 76.400 C 300.400 75.740,300.580 75.200,300.800 75.200 C 301.020 75.200,301.200 74.761,301.200 74.224 C 301.200 73.687,301.380 73.136,301.600 73.000 C 301.820 72.864,302.000 72.313,302.000 71.776 C 302.000 71.239,302.180 70.800,302.400 70.800 C 302.620 70.800,302.800 70.091,302.800 69.224 C 302.800 68.357,302.980 67.536,303.200 67.400 C 303.420 67.264,303.600 65.993,303.600 64.576 C 303.600 63.058,303.771 62.000,304.016 62.000 C 304.540 62.000,304.487 50.101,303.962 49.777 C 303.763 49.654,303.600 48.498,303.600 47.210 C 303.600 45.921,303.429 44.807,303.220 44.733 C 303.011 44.660,302.796 43.835,302.742 42.900 C 302.688 41.965,302.499 41.200,302.322 41.200 C 302.145 41.200,302.000 40.660,302.000 40.000 C 302.000 39.340,301.820 38.800,301.600 38.800 C 301.380 38.800,301.200 38.260,301.200 37.600 C 301.200 36.940,301.020 36.400,300.800 36.400 C 300.580 36.400,300.400 35.860,300.400 35.200 C 300.400 34.540,300.220 34.000,300.000 34.000 C 299.780 34.000,299.600 33.640,299.600 33.200 C 299.600 32.760,299.420 32.400,299.200 32.400 C 298.980 32.400,298.800 32.040,298.800 31.600 C 298.800 31.160,298.620 30.800,298.400 30.800 C 298.180 30.800,298.000 30.440,298.000 30.000 C 298.000 29.560,297.820 29.200,297.600 29.200 C 297.380 29.200,297.200 28.840,297.200 28.400 C 297.200 27.960,297.020 27.600,296.800 27.600 C 296.580 27.600,296.400 27.330,296.400 27.000 C 296.400 26.670,296.250 26.400,296.068 26.400 C 295.885 26.400,295.480 25.905,295.168 25.300 C 294.855 24.695,294.150 23.749,293.600 23.197 C 293.050 22.646,292.256 21.579,291.836 20.828 C 290.879 19.114,282.929 11.200,282.166 11.200 C 281.854 11.200,281.600 11.050,281.600 10.868 C 281.600 10.685,281.105 10.280,280.500 9.968 C 279.895 9.655,279.162 9.175,278.871 8.900 C 278.581 8.625,278.035 8.400,277.660 8.400 C 277.284 8.400,276.717 8.040,276.400 7.600 C 276.083 7.160,275.503 6.800,275.112 6.800 C 274.720 6.800,274.400 6.620,274.400 6.400 C 274.400 6.180,274.051 6.000,273.624 6.000 C 273.197 6.000,272.736 5.820,272.600 5.600 C 272.464 5.380,272.003 5.200,271.576 5.200 C 271.149 5.200,270.800 5.020,270.800 4.800 C 270.800 4.580,270.440 4.400,270.000 4.400 C 269.560 4.400,269.200 4.220,269.200 4.000 C 269.200 3.780,268.660 3.600,268.000 3.600 C 267.340 3.600,266.800 3.420,266.800 3.200 C 266.800 2.980,266.260 2.800,265.600 2.800 C 264.940 2.800,264.400 2.620,264.400 2.400 C 264.400 2.180,263.680 2.000,262.800 2.000 C 261.920 2.000,261.200 1.820,261.200 1.600 C 261.200 1.380,260.401 1.200,259.424 1.200 C 258.447 1.200,257.536 1.020,257.400 0.800 C 257.063 0.255,238.800 0.255,238.800 0.800 C 238.800 1.020,237.900 1.200,236.800 1.200 C 235.700 1.200,234.800 1.380,234.800 1.600 C 234.800 1.820,234.069 2.000,233.176 2.000 C 232.196 2.000,231.651 2.158,231.800 2.400 C 231.944 2.633,231.545 2.800,230.847 2.800 C 230.187 2.800,229.536 2.980,229.400 3.200 C 229.264 3.420,228.803 3.600,228.376 3.600 C 227.949 3.600,227.600 3.780,227.600 4.000 C 227.600 4.220,227.150 4.400,226.600 4.400 C 226.050 4.400,225.600 4.580,225.600 4.800 C 225.600 5.020,225.240 5.200,224.800 5.200 C 224.360 5.200,224.000 5.380,224.000 5.600 C 224.000 5.820,223.640 6.000,223.200 6.000 C 222.760 6.000,222.400 6.180,222.400 6.400 C 222.400 6.620,222.117 6.800,221.771 6.800 C 221.426 6.800,220.871 7.072,220.539 7.404 C 220.207 7.736,219.770 7.905,219.568 7.780 C 219.365 7.655,219.200 7.722,219.200 7.928 C 219.200 8.134,218.660 8.527,218.000 8.800 C 217.340 9.073,216.800 9.466,216.800 9.672 C 216.800 9.878,216.653 9.956,216.473 9.845 C 216.293 9.734,215.893 9.993,215.585 10.421 C 215.276 10.850,214.779 11.200,214.480 11.200 C 214.182 11.200,213.246 11.920,212.400 12.800 C 211.554 13.680,210.750 14.400,210.613 14.400 C 210.185 14.400,208.400 16.340,208.400 16.805 C 208.400 17.048,208.220 17.136,208.000 17.000 C 207.780 16.864,207.600 17.044,207.600 17.400 C 207.600 17.756,207.420 17.936,207.200 17.800 C 206.980 17.664,206.800 17.833,206.800 18.174 C 206.800 18.516,205.900 19.715,204.800 20.839 C 203.700 21.962,202.800 23.067,202.800 23.294 C 202.800 23.521,202.471 23.997,202.070 24.353 C 201.668 24.709,201.084 25.585,200.772 26.300 C 200.067 27.916,199.933 27.916,199.228 26.300 C 198.916 25.585,198.332 24.709,197.930 24.353 C 197.529 23.997,197.200 23.491,197.200 23.227 C 197.200 22.964,196.300 21.871,195.200 20.800 C 194.100 19.729,193.200 18.656,193.200 18.417 C 193.200 17.950,188.997 13.600,188.546 13.600 C 188.397 13.600,187.569 12.880,186.707 12.000 C 185.844 11.120,184.882 10.400,184.569 10.400 C 184.256 10.400,184.000 10.209,184.000 9.976 C 184.000 9.743,183.820 9.664,183.600 9.800 C 183.380 9.936,183.200 9.878,183.200 9.672 C 183.200 9.466,182.660 9.073,182.000 8.800 C 181.340 8.527,180.800 8.145,180.800 7.951 C 180.800 7.758,180.440 7.600,180.000 7.600 C 179.560 7.600,179.200 7.420,179.200 7.200 C 179.200 6.980,178.840 6.800,178.400 6.800 C 177.960 6.800,177.600 6.620,177.600 6.400 C 177.600 6.180,177.240 6.000,176.800 6.000 C 176.360 6.000,175.999 5.865,175.997 5.700 C 175.993 5.294,174.014 4.400,173.120 4.400 C 172.724 4.400,172.400 4.220,172.400 4.000 C 172.400 3.780,172.051 3.600,171.624 3.600 C 171.197 3.600,170.736 3.420,170.600 3.200 C 170.464 2.980,169.733 2.800,168.976 2.800 C 168.219 2.800,167.600 2.620,167.600 2.400 C 167.600 2.180,166.959 2.000,166.176 2.000 C 165.329 2.000,164.853 1.838,165.000 1.600 C 165.152 1.353,164.471 1.200,163.224 1.200 C 162.111 1.200,161.200 1.032,161.200 0.827 C 161.200 0.296,142.936 0.257,142.608 0.788 M156.000 15.600 C 156.000 15.820,156.979 16.000,158.176 16.000 C 159.373 16.000,160.464 16.180,160.600 16.400 C 160.736 16.620,161.276 16.800,161.800 16.800 C 162.324 16.800,162.864 16.980,163.000 17.200 C 163.136 17.420,163.676 17.600,164.200 17.600 C 164.724 17.600,165.264 17.780,165.400 18.000 C 165.536 18.220,166.087 18.400,166.624 18.400 C 167.161 18.400,167.600 18.580,167.600 18.800 C 167.600 19.020,167.960 19.200,168.400 19.200 C 168.840 19.200,169.200 19.380,169.200 19.600 C 169.200 19.820,169.560 20.000,170.000 20.000 C 170.440 20.000,170.800 20.180,170.800 20.400 C 170.800 20.620,171.160 20.800,171.600 20.800 C 172.040 20.800,172.400 20.968,172.400 21.173 C 172.400 21.378,172.759 21.660,173.198 21.799 C 173.636 21.938,174.221 22.272,174.498 22.541 C 174.774 22.809,175.716 23.562,176.591 24.214 C 179.061 26.055,183.200 30.315,183.200 31.016 C 183.200 31.363,183.380 31.536,183.600 31.400 C 183.820 31.264,184.000 31.394,184.000 31.688 C 184.000 31.983,184.360 32.483,184.800 32.800 C 185.240 33.117,185.600 33.657,185.600 34.000 C 185.600 34.343,185.960 34.883,186.400 35.200 C 186.840 35.517,187.200 36.097,187.200 36.488 C 187.200 36.880,187.380 37.200,187.600 37.200 C 187.820 37.200,188.000 37.560,188.000 38.000 C 188.000 38.440,188.180 38.800,188.400 38.800 C 188.620 38.800,188.800 39.160,188.800 39.600 C 188.800 40.040,188.980 40.400,189.200 40.400 C 189.420 40.400,189.600 40.850,189.600 41.400 C 189.600 41.950,189.780 42.400,190.000 42.400 C 190.220 42.400,190.400 42.940,190.400 43.600 C 190.400 44.260,190.557 44.800,190.749 44.800 C 190.941 44.800,191.204 45.655,191.333 46.700 C 191.461 47.745,191.746 49.950,191.966 51.600 C 192.185 53.250,192.373 63.645,192.382 74.700 L 192.400 94.800 166.024 94.800 C 148.871 94.800,139.561 94.660,139.400 94.400 C 139.264 94.180,138.837 94.000,138.451 94.000 C 138.065 94.000,136.817 93.550,135.677 93.000 C 134.537 92.450,133.333 92.000,133.002 92.000 C 132.671 92.000,132.400 91.820,132.400 91.600 C 132.400 91.380,132.080 91.200,131.688 91.200 C 131.297 91.200,130.717 90.840,130.400 90.400 C 130.083 89.960,129.543 89.600,129.200 89.600 C 128.857 89.600,128.317 89.240,128.000 88.800 C 127.683 88.360,127.143 88.000,126.800 88.000 C 126.457 88.000,125.912 87.627,125.588 87.171 C 125.265 86.714,123.875 85.189,122.500 83.782 C 121.125 82.375,120.000 80.988,120.000 80.700 C 120.000 80.412,119.640 79.917,119.200 79.600 C 118.760 79.283,118.400 78.793,118.400 78.512 C 118.400 78.230,118.220 78.000,118.000 78.000 C 117.780 78.000,117.600 77.730,117.600 77.400 C 117.600 77.070,117.420 76.800,117.200 76.800 C 116.980 76.800,116.800 76.530,116.800 76.200 C 116.800 75.870,116.620 75.600,116.400 75.600 C 116.180 75.600,116.000 75.240,116.000 74.800 C 116.000 74.360,115.820 74.000,115.600 74.000 C 115.380 74.000,115.200 73.640,115.200 73.200 C 115.200 72.760,115.020 72.400,114.800 72.400 C 114.580 72.400,114.400 72.040,114.400 71.600 C 114.400 71.160,114.220 70.800,114.000 70.800 C 113.780 70.800,113.600 70.260,113.600 69.600 C 113.600 68.940,113.420 68.400,113.200 68.400 C 112.980 68.400,112.800 67.860,112.800 67.200 C 112.800 66.540,112.620 66.000,112.400 66.000 C 112.180 66.000,112.000 65.201,112.000 64.224 C 112.000 63.247,111.820 62.336,111.600 62.200 C 111.361 62.052,111.200 59.463,111.200 55.776 C 111.200 51.925,111.351 49.600,111.600 49.600 C 111.820 49.600,112.000 48.700,112.000 47.600 C 112.000 46.500,112.180 45.600,112.400 45.600 C 112.620 45.600,112.800 45.060,112.800 44.400 C 112.800 43.740,112.980 43.200,113.200 43.200 C 113.420 43.200,113.600 42.750,113.600 42.200 C 113.600 41.650,113.780 41.200,114.000 41.200 C 114.220 41.200,114.400 40.840,114.400 40.400 C 114.400 39.960,114.580 39.600,114.800 39.600 C 115.020 39.600,115.200 39.240,115.200 38.800 C 115.200 38.360,115.380 38.000,115.600 38.000 C 115.820 38.000,116.000 37.640,116.000 37.200 C 116.000 36.760,116.180 36.400,116.400 36.400 C 116.620 36.400,116.800 36.080,116.800 35.688 C 116.800 35.297,117.160 34.717,117.600 34.400 C 118.040 34.083,118.400 33.580,118.400 33.283 C 118.400 32.986,118.625 32.511,118.900 32.227 C 120.084 31.006,121.600 29.190,121.600 28.993 C 121.600 28.646,125.149 25.200,125.506 25.200 C 125.686 25.200,126.501 24.570,127.318 23.800 C 128.134 23.030,129.071 22.400,129.401 22.400 C 129.730 22.400,130.000 22.220,130.000 22.000 C 130.000 21.780,130.236 21.600,130.525 21.600 C 130.813 21.600,131.436 21.240,131.908 20.800 C 132.380 20.360,133.044 20.000,133.383 20.000 C 133.722 20.000,134.000 19.820,134.000 19.600 C 134.000 19.380,134.439 19.200,134.976 19.200 C 135.513 19.200,136.064 19.020,136.200 18.800 C 136.336 18.580,136.797 18.400,137.224 18.400 C 137.651 18.400,138.000 18.220,138.000 18.000 C 138.000 17.780,138.439 17.600,138.976 17.600 C 139.513 17.600,140.064 17.420,140.200 17.200 C 140.336 16.980,141.067 16.800,141.824 16.800 C 142.581 16.800,143.200 16.620,143.200 16.400 C 143.200 16.180,144.179 16.000,145.376 16.000 C 146.573 16.000,147.664 15.820,147.800 15.600 C 147.938 15.377,149.804 15.200,152.024 15.200 C 154.408 15.200,156.000 15.360,156.000 15.600 M252.800 15.600 C 252.800 15.822,253.867 16.000,255.200 16.000 C 256.533 16.000,257.600 16.178,257.600 16.400 C 257.600 16.620,258.140 16.800,258.800 16.800 C 259.460 16.800,260.000 16.980,260.000 17.200 C 260.000 17.420,260.450 17.600,261.000 17.600 C 261.550 17.600,262.000 17.780,262.000 18.000 C 262.000 18.220,262.540 18.400,263.200 18.400 C 263.860 18.400,264.400 18.580,264.400 18.800 C 264.400 19.020,264.760 19.200,265.200 19.200 C 265.640 19.200,266.000 19.380,266.000 19.600 C 266.000 19.820,266.278 20.000,266.617 20.000 C 266.956 20.000,267.620 20.360,268.092 20.800 C 268.564 21.240,269.187 21.600,269.475 21.600 C 269.764 21.600,270.000 21.780,270.000 22.000 C 270.000 22.220,270.270 22.400,270.599 22.400 C 270.929 22.400,271.866 23.030,272.682 23.800 C 273.499 24.570,274.314 25.200,274.494 25.200 C 274.927 25.200,278.400 28.683,278.400 29.117 C 278.400 29.303,278.805 29.823,279.300 30.271 C 280.656 31.499,281.600 32.749,281.600 33.316 C 281.600 33.595,281.960 34.083,282.400 34.400 C 282.840 34.717,283.200 35.297,283.200 35.688 C 283.200 36.080,283.380 36.400,283.600 36.400 C 283.820 36.400,284.000 36.760,284.000 37.200 C 284.000 37.640,284.180 38.000,284.400 38.000 C 284.620 38.000,284.800 38.360,284.800 38.800 C 284.800 39.240,284.935 39.601,285.100 39.603 C 285.506 39.607,286.400 41.586,286.400 42.480 C 286.400 42.876,286.580 43.200,286.800 43.200 C 287.020 43.200,287.200 43.740,287.200 44.400 C 287.200 45.060,287.380 45.600,287.600 45.600 C 287.820 45.600,288.000 46.500,288.000 47.600 C 288.000 48.727,288.183 49.600,288.419 49.600 C 288.701 49.600,288.778 51.659,288.655 55.900 C 288.453 62.832,288.110 66.000,287.560 66.000 C 287.362 66.000,287.200 66.540,287.200 67.200 C 287.200 67.860,287.020 68.400,286.800 68.400 C 286.580 68.400,286.400 68.940,286.400 69.600 C 286.400 70.260,286.220 70.800,286.000 70.800 C 285.780 70.800,285.600 71.160,285.600 71.600 C 285.600 72.040,285.420 72.400,285.200 72.400 C 284.980 72.400,284.800 72.760,284.800 73.200 C 284.800 73.640,284.609 74.000,284.376 74.000 C 284.143 74.000,284.055 74.165,284.180 74.368 C 284.305 74.570,284.136 75.007,283.804 75.339 C 283.472 75.671,283.200 76.136,283.200 76.371 C 283.200 76.607,283.020 76.800,282.800 76.800 C 282.580 76.800,282.400 77.070,282.400 77.400 C 282.400 77.730,282.220 78.000,282.000 78.000 C 281.780 78.000,281.600 78.230,281.600 78.512 C 281.600 78.793,281.240 79.283,280.800 79.600 C 280.360 79.917,280.000 80.402,280.000 80.678 C 280.000 80.954,278.830 82.379,277.400 83.845 C 275.970 85.311,274.800 86.665,274.800 86.855 C 274.800 87.045,274.557 87.200,274.259 87.200 C 273.962 87.200,273.154 87.740,272.463 88.400 C 271.772 89.060,270.975 89.600,270.692 89.600 C 270.409 89.600,269.917 89.960,269.600 90.400 C 269.283 90.840,268.703 91.200,268.312 91.200 C 267.920 91.200,267.600 91.380,267.600 91.600 C 267.600 91.820,267.329 92.000,266.998 92.000 C 266.667 92.000,265.463 92.450,264.323 93.000 C 263.183 93.550,261.935 94.000,261.549 94.000 C 261.163 94.000,260.736 94.180,260.600 94.400 C 260.439 94.660,251.127 94.800,233.969 94.800 L 207.586 94.800 207.737 73.700 C 207.882 53.390,208.301 45.174,209.207 44.867 C 209.423 44.793,209.600 44.208,209.600 43.567 C 209.600 42.925,209.780 42.400,210.000 42.400 C 210.220 42.400,210.400 42.076,210.400 41.680 C 210.400 40.786,211.294 38.807,211.700 38.803 C 211.865 38.801,212.000 38.440,212.000 38.000 C 212.000 37.560,212.180 37.200,212.400 37.200 C 212.620 37.200,212.800 36.840,212.800 36.400 C 212.800 35.960,212.980 35.600,213.200 35.600 C 213.420 35.600,213.600 35.312,213.600 34.960 C 213.600 34.609,214.140 33.817,214.800 33.200 C 215.460 32.583,216.000 31.870,216.000 31.615 C 216.000 31.016,222.507 24.618,224.034 23.716 C 224.675 23.337,225.200 22.886,225.200 22.714 C 225.200 22.541,225.520 22.400,225.912 22.400 C 226.303 22.400,226.883 22.040,227.200 21.600 C 227.517 21.160,228.097 20.800,228.488 20.800 C 228.880 20.800,229.200 20.620,229.200 20.400 C 229.200 20.180,229.560 20.000,230.000 20.000 C 230.440 20.000,230.800 19.820,230.800 19.600 C 230.800 19.380,231.160 19.200,231.600 19.200 C 232.040 19.200,232.400 19.020,232.400 18.800 C 232.400 18.580,232.940 18.400,233.600 18.400 C 234.260 18.400,234.800 18.220,234.800 18.000 C 234.800 17.780,235.340 17.600,236.000 17.600 C 236.660 17.600,237.200 17.420,237.200 17.200 C 237.200 16.980,237.830 16.800,238.600 16.800 C 239.370 16.800,240.000 16.620,240.000 16.400 C 240.000 16.178,241.067 16.000,242.400 16.000 C 243.733 16.000,244.800 15.822,244.800 15.600 C 244.800 15.360,246.400 15.200,248.800 15.200 C 251.200 15.200,252.800 15.360,252.800 15.600 " stroke="none" fill="#d7f4fb" fill-rule="evenodd"></path><path id="path1" d="M68.822 94.702 C 35.684 94.782,26.579 94.910,26.337 95.302 C 26.149 95.606,25.059 95.814,23.536 95.836 C 22.030 95.858,20.981 96.056,20.888 96.336 C 20.803 96.591,20.208 96.800,19.567 96.800 C 18.925 96.800,18.400 96.980,18.400 97.200 C 18.400 97.420,18.130 97.600,17.800 97.600 C 17.470 97.600,17.200 97.317,17.200 96.971 C 17.200 96.413,17.133 96.410,16.600 96.943 C 16.270 97.273,16.000 97.766,16.000 98.038 C 16.000 98.310,15.882 98.415,15.737 98.270 C 15.592 98.125,15.218 98.219,14.906 98.478 C 14.466 98.843,14.263 98.825,13.997 98.395 C 13.741 97.980,13.588 98.108,13.388 98.907 C 13.238 99.501,12.741 100.088,12.260 100.235 C 11.787 100.380,10.003 101.917,8.296 103.650 C 6.589 105.382,5.014 106.800,4.796 106.800 C 4.578 106.800,4.400 107.049,4.400 107.354 C 4.400 108.392,3.392 109.864,2.793 109.701 C 2.329 109.574,2.314 109.619,2.723 109.907 C 3.284 110.302,2.223 113.200,1.518 113.200 C 1.335 113.200,1.297 113.648,1.435 114.196 C 1.611 114.900,1.500 115.264,1.054 115.434 C 0.294 115.726,0.374 113.451,0.160 140.700 C 0.031 157.128,0.104 162.800,0.444 162.800 C 0.755 162.800,0.820 163.316,0.646 164.400 C 0.483 165.424,0.544 166.000,0.816 166.000 C 1.050 166.000,1.489 166.595,1.793 167.321 C 7.935 182.021,34.400 176.399,34.400 160.395 C 34.400 156.013,35.580 148.834,36.467 147.820 C 36.650 147.611,36.800 147.116,36.800 146.720 C 36.800 146.324,36.980 146.000,37.200 146.000 C 37.420 146.000,37.600 145.662,37.600 145.249 C 37.600 144.836,37.870 144.274,38.200 144.000 C 38.530 143.726,38.800 143.332,38.800 143.124 C 38.800 142.149,44.710 135.600,45.590 135.600 C 45.784 135.600,46.206 135.337,46.528 135.015 C 47.370 134.173,53.270 131.352,54.855 131.034 C 59.162 130.170,64.890 130.039,99.300 130.021 L 137.200 130.000 137.200 157.976 C 137.200 179.918,137.308 186.023,137.700 186.276 C 138.460 186.768,168.829 187.086,168.667 186.600 C 168.583 186.347,162.942 186.126,153.367 186.000 L 138.200 185.800 137.958 154.400 C 137.825 137.130,137.690 116.745,137.658 109.100 L 137.600 95.200 124.974 95.200 C 118.029 95.200,112.044 95.065,111.674 94.900 C 111.303 94.735,92.020 94.646,68.822 94.702 M275.100 95.100 L 262.400 95.211 262.342 109.306 C 262.311 117.058,262.176 137.440,262.042 154.600 L 261.800 185.800 246.600 186.000 L 231.400 186.200 231.399 293.000 L 231.398 399.800 231.500 293.300 L 231.601 186.800 246.427 186.800 C 255.882 186.800,261.533 186.650,262.026 186.386 C 262.780 185.983,262.800 185.245,262.800 157.986 L 262.800 130.000 318.700 129.992 C 379.139 129.983,377.622 130.035,381.396 127.823 C 383.706 126.470,386.800 123.707,386.800 122.998 C 386.800 122.723,387.057 122.285,387.370 122.025 C 389.050 120.631,390.428 112.684,389.602 109.154 C 388.483 104.373,383.662 97.600,381.377 97.600 C 380.669 97.600,380.614 96.942,381.300 96.665 C 381.599 96.544,381.518 96.450,381.100 96.432 C 380.715 96.414,380.400 96.574,380.400 96.787 C 380.400 97.001,380.130 97.071,379.800 96.945 C 379.470 96.818,379.200 96.479,379.200 96.191 C 379.200 95.488,378.359 95.226,377.507 95.664 C 376.510 96.177,373.601 95.906,373.601 95.300 C 373.600 94.826,318.990 94.715,275.100 95.100 M168.997 307.800 C 168.997 358.400,169.043 379.041,169.100 353.668 C 169.157 328.295,169.157 286.895,169.100 261.668 C 169.043 236.441,168.997 257.200,168.997 307.800 " stroke="none" fill="#fc7c84" fill-rule="evenodd"></path><path id="path2" d="M22.576 95.387 C 21.846 95.940,21.883 95.975,23.200 95.982 C 24.953 95.991,26.400 95.616,26.400 95.153 C 26.400 94.572,23.413 94.754,22.576 95.387 M373.600 95.304 C 373.600 95.669,374.177 95.828,375.465 95.816 C 377.993 95.794,378.103 95.029,375.598 94.887 C 374.151 94.806,373.600 94.921,373.600 95.304 M19.200 95.995 C 18.870 96.186,18.285 96.440,17.900 96.559 C 17.045 96.823,16.970 97.600,17.800 97.600 C 18.130 97.600,18.400 97.420,18.400 97.200 C 18.400 96.980,18.921 96.800,19.557 96.800 C 20.217 96.800,20.813 96.542,20.945 96.200 C 21.201 95.531,20.204 95.413,19.200 95.995 M379.200 96.182 C 379.200 96.963,380.295 97.252,380.567 96.542 C 380.695 96.208,380.800 95.898,380.800 95.852 C 380.800 95.807,380.440 95.743,380.000 95.710 C 379.560 95.677,379.200 95.889,379.200 96.182 M381.300 96.665 C 380.614 96.942,380.669 97.600,381.377 97.600 C 383.662 97.600,388.483 104.373,389.602 109.154 C 390.428 112.684,389.050 120.631,387.370 122.025 C 387.057 122.285,386.800 122.723,386.800 122.998 C 386.800 123.707,383.706 126.470,381.396 127.823 C 377.622 130.035,379.139 129.983,318.700 129.992 L 262.800 130.000 262.800 157.980 C 262.800 184.206,262.756 185.986,262.100 186.368 C 261.715 186.592,261.614 186.781,261.876 186.788 C 262.138 186.795,262.464 186.620,262.600 186.400 C 263.039 185.690,370.807 185.864,371.356 186.576 C 371.701 187.023,372.202 187.076,373.597 186.812 C 374.585 186.625,375.530 186.557,375.697 186.660 C 375.863 186.763,376.000 186.653,376.000 186.416 C 376.000 186.156,376.396 186.084,376.996 186.235 C 377.666 186.403,378.063 186.300,378.209 185.921 C 378.365 185.513,378.975 185.396,380.418 185.497 C 381.893 185.600,382.384 185.501,382.306 185.118 C 382.239 184.789,382.529 184.646,383.100 184.725 C 383.595 184.794,384.000 184.659,384.000 184.425 C 384.000 184.191,384.360 184.000,384.800 184.000 C 385.240 184.000,385.600 183.820,385.600 183.600 C 385.600 183.380,385.870 183.200,386.200 183.200 C 386.530 183.200,386.800 183.020,386.800 182.800 C 386.800 182.580,387.070 182.400,387.400 182.400 C 387.730 182.400,388.000 182.220,388.000 182.000 C 388.000 181.780,388.270 181.600,388.600 181.600 C 388.930 181.600,389.200 181.315,389.200 180.967 C 389.200 180.618,389.416 180.405,389.680 180.493 C 390.245 180.682,392.400 178.732,392.400 178.033 C 392.400 177.769,392.580 177.664,392.800 177.800 C 393.020 177.936,393.204 177.902,393.209 177.724 C 393.214 177.546,393.862 176.685,394.649 175.811 C 395.436 174.938,396.374 173.543,396.734 172.711 C 397.094 171.880,397.526 171.200,397.694 171.200 C 397.862 171.200,398.000 170.840,398.000 170.400 C 398.000 169.960,398.180 169.600,398.400 169.600 C 398.620 169.600,398.800 169.186,398.800 168.680 C 398.800 168.174,399.025 167.535,399.300 167.260 C 399.853 166.708,400.302 118.488,399.765 117.248 C 399.611 116.892,399.525 116.105,399.573 115.500 C 399.621 114.895,399.467 114.400,399.230 114.400 C 398.994 114.400,398.800 113.950,398.800 113.400 C 398.800 112.850,398.620 112.400,398.400 112.400 C 398.180 112.400,398.000 112.110,398.000 111.754 C 398.000 110.919,396.453 108.084,395.300 106.806 C 394.805 106.257,394.400 105.676,394.400 105.515 C 394.400 105.254,391.844 102.692,390.022 101.128 C 389.653 100.810,389.136 100.621,388.875 100.708 C 388.614 100.795,388.400 100.582,388.400 100.233 C 388.400 99.885,388.130 99.600,387.800 99.600 C 387.470 99.600,387.200 99.426,387.200 99.213 C 387.200 98.999,386.899 98.941,386.531 99.082 C 386.011 99.281,385.923 99.179,386.135 98.625 C 386.366 98.023,386.251 97.951,385.405 98.163 C 384.852 98.302,384.400 98.245,384.400 98.037 C 384.400 97.750,382.037 96.269,381.839 96.432 C 381.817 96.449,381.575 96.554,381.300 96.665 M14.900 97.744 C 14.405 97.989,14.000 98.327,14.000 98.495 C 14.000 98.940,14.711 98.868,15.004 98.393 C 15.142 98.170,15.423 98.091,15.628 98.217 C 15.832 98.344,16.000 98.167,16.000 97.824 C 16.000 97.481,15.955 97.222,15.900 97.249 C 15.845 97.276,15.395 97.499,14.900 97.744 M12.400 99.114 C 12.400 99.286,11.859 99.747,11.199 100.137 C 8.924 101.481,3.982 106.800,5.008 106.800 C 5.109 106.800,6.589 105.382,8.296 103.650 C 10.003 101.917,11.805 100.375,12.300 100.223 C 13.182 99.952,13.587 98.800,12.800 98.800 C 12.580 98.800,12.400 98.941,12.400 99.114 M3.403 108.500 C 3.244 108.995,3.133 109.535,3.157 109.700 C 3.181 109.865,3.022 110.000,2.805 110.000 C 2.489 110.000,1.200 112.448,1.200 113.049 C 1.200 114.234,2.381 112.293,4.333 107.900 C 4.407 107.735,4.293 107.600,4.080 107.600 C 3.867 107.600,3.563 108.005,3.403 108.500 M0.538 114.617 C 0.408 114.957,0.401 115.335,0.524 115.457 C 0.874 115.808,1.600 115.213,1.600 114.576 C 1.600 113.809,0.837 113.838,0.538 114.617 M0.027 118.020 C 0.052 119.316,0.081 119.344,0.494 118.487 C 0.819 117.812,0.812 117.452,0.467 117.107 C 0.111 116.751,0.006 116.968,0.027 118.020 M58.400 130.434 C 57.190 130.608,55.595 130.875,54.855 131.027 C 53.260 131.356,47.364 134.179,46.528 135.015 C 46.206 135.337,45.784 135.600,45.590 135.600 C 44.710 135.600,38.800 142.149,38.800 143.124 C 38.800 143.332,38.530 143.726,38.200 144.000 C 37.870 144.274,37.600 144.836,37.600 145.249 C 37.600 145.662,37.420 146.000,37.200 146.000 C 36.980 146.000,36.800 146.324,36.800 146.720 C 36.800 147.116,36.650 147.611,36.467 147.820 C 35.580 148.834,34.400 156.013,34.400 160.395 C 34.400 176.399,7.935 182.021,1.793 167.321 C 1.489 166.595,1.052 166.000,0.820 166.000 C 0.104 166.000,0.238 166.582,1.538 169.095 C 1.792 169.587,2.000 170.262,2.000 170.595 C 2.000 170.928,2.180 171.200,2.400 171.200 C 2.620 171.200,2.800 171.560,2.800 172.000 C 2.800 172.440,2.950 172.800,3.132 172.800 C 3.315 172.800,3.720 173.295,4.032 173.900 C 4.345 174.505,4.828 175.241,5.106 175.535 C 5.384 175.829,6.079 176.682,6.651 177.431 C 7.222 178.180,7.877 178.676,8.106 178.534 C 8.338 178.391,8.405 178.468,8.257 178.708 C 8.111 178.945,8.578 179.553,9.295 180.059 C 10.013 180.564,10.949 181.298,11.375 181.689 C 11.802 182.080,12.567 182.400,13.075 182.400 C 13.625 182.400,14.000 182.640,14.000 182.992 C 14.000 183.318,14.450 183.698,15.000 183.836 C 15.550 183.974,16.000 184.259,16.000 184.469 C 16.000 184.678,16.405 184.794,16.900 184.725 C 17.401 184.656,17.764 184.798,17.718 185.046 C 17.671 185.300,18.185 185.482,18.918 185.471 C 19.822 185.456,20.162 185.617,20.070 186.014 C 19.976 186.423,20.155 186.384,20.721 185.872 C 21.437 185.223,21.522 185.219,21.754 185.825 C 21.934 186.294,22.288 186.414,22.979 186.241 C 23.514 186.107,24.064 186.181,24.203 186.405 C 24.342 186.629,24.588 186.731,24.750 186.631 C 24.912 186.531,25.754 186.612,26.622 186.812 C 27.860 187.097,28.296 187.048,28.646 186.585 C 29.036 186.068,35.883 186.007,83.246 186.097 L 137.400 186.200 137.295 158.100 L 137.189 130.000 98.895 130.059 C 77.833 130.091,59.610 130.260,58.400 130.434 M0.000 163.576 C 0.000 164.003,0.180 164.464,0.400 164.600 C 0.627 164.740,0.800 164.404,0.800 163.824 C 0.800 163.261,0.620 162.800,0.400 162.800 C 0.180 162.800,0.000 163.149,0.000 163.576 M168.597 293.400 C 168.597 351.920,168.643 375.800,168.700 346.468 C 168.757 317.135,168.757 269.255,168.700 240.068 C 168.643 210.880,168.597 234.880,168.597 293.400 M370.901 374.200 C 370.905 375.080,370.987 375.393,371.083 374.895 C 371.179 374.398,371.175 373.678,371.075 373.295 C 370.975 372.913,370.896 373.320,370.901 374.200 M29.277 378.030 C 29.356 378.267,29.591 378.460,29.800 378.460 C 30.009 378.460,30.245 378.267,30.323 378.030 C 30.402 377.793,30.167 377.600,29.800 377.600 C 29.433 377.600,29.198 377.793,29.277 378.030 M369.757 378.233 C 369.891 378.581,370.003 378.986,370.006 379.133 C 370.014 379.491,370.786 378.283,370.794 377.900 C 370.797 377.735,370.511 377.600,370.157 377.600 C 369.735 377.600,369.598 377.818,369.757 378.233 " stroke="none" fill="#fc6c7c" fill-rule="evenodd"></path><path id="path3" d="M29.100 186.832 C 28.454 187.208,28.400 188.337,28.400 201.420 L 28.400 215.600 98.400 215.600 L 168.400 215.600 168.400 201.266 L 168.400 186.931 145.300 186.666 C 108.695 186.246,29.913 186.358,29.100 186.832 M247.100 186.700 L 231.600 186.809 231.600 201.205 L 231.600 215.600 301.600 215.600 L 371.600 215.600 371.600 201.544 C 371.600 188.627,371.543 187.445,370.900 186.957 C 370.232 186.450,302.427 186.309,247.100 186.700 " stroke="none" fill="#ec4c54" fill-rule="evenodd"></path><path id="path4" d="M389.600 100.786 C 389.600 100.998,390.005 101.384,390.500 101.644 C 391.395 102.114,391.396 102.112,390.638 101.258 C 389.791 100.305,389.600 100.218,389.600 100.786 M393.802 176.798 C 393.403 177.239,393.207 177.600,393.367 177.600 C 393.788 177.600,394.928 176.395,394.712 176.179 C 394.611 176.078,394.202 176.356,393.802 176.798 M20.800 185.800 C 20.384 186.301,20.440 186.400,21.138 186.400 C 21.718 186.400,21.904 186.215,21.745 185.800 C 21.618 185.470,21.466 185.200,21.406 185.200 C 21.347 185.200,21.074 185.470,20.800 185.800 M378.246 185.825 C 378.100 186.205,378.292 186.400,378.813 186.400 C 379.723 186.400,379.868 185.788,379.033 185.468 C 378.721 185.348,378.367 185.509,378.246 185.825 M28.647 186.621 C 28.483 187.049,28.563 187.142,28.905 186.921 C 29.177 186.744,53.700 186.509,83.400 186.397 L 137.400 186.194 83.143 186.097 C 34.418 186.010,28.861 186.063,28.647 186.621 M316.381 186.300 C 351.432 186.367,370.302 186.542,370.561 186.801 C 371.158 187.398,371.606 187.282,371.345 186.600 C 371.141 186.070,364.778 186.012,316.857 186.099 L 262.600 186.197 316.381 186.300 M24.381 186.820 C 23.982 187.073,24.414 187.190,25.767 187.194 C 27.924 187.201,28.055 187.039,26.181 186.684 C 25.511 186.557,24.701 186.618,24.381 186.820 M373.600 186.800 C 372.241 187.086,372.256 187.096,374.124 187.147 C 375.316 187.180,375.953 187.048,375.800 186.800 C 375.664 186.580,375.428 186.424,375.276 186.453 C 375.124 186.482,374.370 186.638,373.600 186.800 M28.428 294.900 C 28.444 339.502,28.607 373.850,28.800 373.400 C 29.128 372.637,29.145 372.641,29.172 373.500 C 29.187 373.995,29.020 374.400,28.800 374.400 C 28.580 374.400,28.400 374.591,28.400 374.824 C 28.400 375.057,28.560 375.149,28.755 375.028 C 28.950 374.907,29.102 375.032,29.092 375.304 C 29.035 376.895,29.262 377.600,29.833 377.600 C 30.182 377.600,30.384 377.825,30.283 378.100 C 30.183 378.375,29.898 378.555,29.650 378.500 C 29.403 378.445,29.200 378.580,29.200 378.800 C 29.200 379.020,29.341 379.200,29.513 379.200 C 29.685 379.200,29.863 379.655,29.909 380.212 C 29.955 380.769,30.355 381.973,30.797 382.887 C 31.238 383.802,31.600 384.786,31.600 385.075 C 31.600 385.364,31.780 385.600,32.000 385.600 C 32.220 385.600,32.400 385.806,32.400 386.057 C 32.400 386.308,32.959 387.047,33.642 387.700 C 34.325 388.353,34.915 389.092,34.953 389.343 C 35.078 390.162,35.647 390.818,36.028 390.583 C 36.232 390.456,36.400 390.556,36.400 390.805 C 36.400 391.271,37.406 392.440,37.786 392.414 C 37.904 392.406,38.024 392.535,38.054 392.700 C 38.193 393.476,39.681 394.116,40.037 393.553 C 40.298 393.141,40.389 393.230,40.394 393.900 C 40.398 394.446,40.645 394.800,41.024 394.800 C 41.367 394.800,41.536 394.980,41.400 395.200 C 41.168 395.575,41.967 395.777,43.100 395.630 C 43.375 395.594,43.600 395.753,43.600 395.982 C 43.600 396.212,43.848 396.400,44.151 396.400 C 44.454 396.400,44.930 396.674,45.208 397.010 C 45.486 397.345,45.798 397.536,45.900 397.434 C 46.002 397.332,46.460 397.597,46.918 398.024 C 47.794 398.840,48.622 399.083,48.200 398.400 C 48.064 398.180,48.233 398.000,48.576 398.000 C 48.919 398.000,49.201 398.135,49.203 398.300 C 49.216 399.560,51.095 399.600,109.880 399.600 L 168.400 399.600 168.400 307.600 L 168.400 215.600 98.400 215.600 L 28.400 215.600 28.428 294.900 M231.600 307.600 L 231.600 399.600 290.600 399.600 C 329.667 399.600,349.600 399.465,349.600 399.200 C 349.600 398.980,350.196 398.800,350.925 398.800 C 351.683 398.800,352.605 398.468,353.082 398.024 C 353.540 397.597,354.020 397.353,354.148 397.481 C 354.276 397.610,354.495 397.419,354.633 397.057 C 354.772 396.696,355.226 396.400,355.643 396.400 C 356.059 396.400,356.400 396.220,356.400 396.000 C 356.400 395.780,356.951 395.600,357.624 395.600 C 358.337 395.600,358.744 395.433,358.600 395.200 C 358.464 394.980,358.633 394.800,358.976 394.800 C 359.333 394.800,359.600 394.458,359.600 394.000 C 359.600 393.502,359.865 393.202,360.300 393.206 C 360.898 393.211,360.913 393.269,360.400 393.600 C 359.868 393.944,359.868 393.988,360.405 393.994 C 360.738 393.997,361.188 393.595,361.405 393.100 C 361.622 392.605,361.959 392.290,362.154 392.400 C 362.349 392.510,362.658 392.195,362.841 391.700 C 363.024 391.205,363.450 390.800,363.787 390.800 C 364.124 390.800,364.400 390.530,364.400 390.200 C 364.400 389.870,364.580 389.600,364.800 389.600 C 365.020 389.600,365.200 389.439,365.200 389.242 C 365.200 389.046,365.695 388.354,366.300 387.706 C 366.905 387.057,367.670 386.003,367.999 385.363 C 368.329 384.724,368.752 384.088,368.939 383.952 C 369.127 383.815,369.280 383.050,369.280 382.252 C 369.280 381.453,369.413 380.800,369.576 380.800 C 369.971 380.800,370.888 378.755,370.615 378.482 C 370.497 378.363,370.397 378.522,370.394 378.833 C 370.389 379.300,370.319 379.294,370.000 378.800 C 369.450 377.949,369.509 377.600,370.200 377.600 C 370.805 377.600,370.882 377.213,370.873 374.200 L 370.868 372.600 371.181 374.000 C 371.354 374.770,371.518 339.445,371.547 295.500 L 371.600 215.600 301.600 215.600 L 231.600 215.600 231.600 307.600 " stroke="none" fill="#fc4c64" fill-rule="evenodd"></path></g></svg>