<?xml version="1.0" encoding="iso-8859-1"?>
<!-- Generator: Adobe Illustrator 19.0.0, SVG Export Plug-In . SVG Version: 6.00 Build 0)  -->
<svg version="1.1" id="Layer_1" xmlns="http://www.w3.org/2000/svg" xmlns:xlink="http://www.w3.org/1999/xlink" x="0px" y="0px"
	 viewBox="0 0 512 512" style="enable-background:new 0 0 512 512;" xml:space="preserve">
<g>
	<path style="fill:#E57E25;" d="M0,256c0-14.627,11.855-26.483,26.483-26.483S52.966,241.373,52.966,256
		c0,14.627-11.855,26.483-26.483,26.483S0,270.627,0,256"/>
	<path style="fill:#E57E25;" d="M459.034,256c0-14.627,11.855-26.483,26.483-26.483S512,241.373,512,256
		c0,14.627-11.855,26.483-26.483,26.483S459.034,270.627,459.034,256"/>
</g>
<path style="fill:#F3D55B;" d="M256,88.276c-92.628,0-167.724,75.096-167.724,167.724h335.448
	C423.724,163.372,348.628,88.276,256,88.276"/>
<path style="fill:#DF4D60;" d="M256,423.724c92.628,0,167.724-75.096,167.724-167.724H88.276
	C88.276,348.628,163.372,423.724,256,423.724"/>
<g>
</g>
<g>
</g>
<g>
</g>
<g>
</g>
<g>
</g>
<g>
</g>
<g>
</g>
<g>
</g>
<g>
</g>
<g>
</g>
<g>
</g>
<g>
</g>
<g>
</g>
<g>
</g>
<g>
</g>
</svg>
