<svg id="Layer_1" enable-background="new 0 0 512 512" height="512" viewBox="0 0 512 512" width="512" xmlns="http://www.w3.org/2000/svg"><g><g><g><g><g><path d="m422.912 53.5v405c0 29.5-23.957 53.5-53.401 53.5h-227.548c-29.444 0-53.401-24-53.401-53.5v-405c0-29.5 23.957-53.5 53.401-53.5h227.547c29.445 0 53.402 24 53.402 53.5z" fill="#56788b"/><path d="m422.912 53.5v405c0 29.5-23.957 53.5-53.401 53.5h-19.989c29.444 0 53.401-24 53.401-53.5v-405c0-29.5-23.957-53.5-53.401-53.5h19.989c29.444 0 53.401 24 53.401 53.5z" fill="#415e6f"/><path d="m392.968 52.26v407.48c0 13.1-10.634 23.76-23.717 23.76h-227.028c-13.083 0-23.717-10.66-23.717-23.76v-407.48c0-13.1 10.634-23.76 23.717-23.76h23.697c3.248 0 6.137 2.1 7.136 5.2l5.867 18.23c1.459 4.53 5.617 7.57 10.364 7.57h132.898c4.737 0 8.905-3.04 10.364-7.57l5.867-18.23c.999-3.1 3.878-5.2 7.136-5.2h23.697c13.085 0 23.719 10.66 23.719 23.76z" fill="#d9f0f4"/><path d="m392.968 52.26v407.48c0 13.1-10.634 23.76-23.717 23.76h-19.989c13.083 0 23.717-10.66 23.717-23.76v-407.48c0-13.1-10.634-23.76-23.717-23.76h19.989c13.083 0 23.717 10.66 23.717 23.76z" fill="#bae1e5"/><path d="m296.329 21.985h-81.187c-4.14 0-7.496 3.358-7.496 7.5s3.356 7.5 7.496 7.5h81.187c4.14 0 7.496-3.358 7.496-7.5s-3.356-7.5-7.496-7.5z" fill="#415e6f"/><path d="m296.329 434.722h-81.187c-4.14 0-7.496 3.358-7.496 7.5s3.356 7.5 7.496 7.5h81.187c4.14 0 7.496-3.358 7.496-7.5s-3.356-7.5-7.496-7.5z" fill="#56788b"/><path d="m171.657 120.7v75.62c0 12.64-10.274 22.93-22.898 22.93h-97.207l-39.519 30.08c-1.329 1.02-2.928 1.53-4.538 1.53-1.139 0-2.279-.25-3.328-.78-2.548-1.26-4.167-3.87-4.167-6.72v-122.66c0-12.64 10.274-22.93 22.898-22.93h125.862c12.623 0 22.897 10.29 22.897 22.93z" fill="#4dd4f7"/><path d="m171.657 120.7v75.62c0 12.64-10.274 22.93-22.898 22.93h-19.989c12.623 0 22.898-10.29 22.898-22.93v-75.62c0-12.64-10.274-22.93-22.898-22.93h19.989c12.624 0 22.898 10.29 22.898 22.93z" fill="#00c2f3"/><g fill="#fff"><path d="m125.748 133.444h-79.839c-4.14 0-7.496 3.358-7.496 7.5s3.356 7.5 7.496 7.5h79.838c4.14 0 7.496-3.358 7.496-7.5s-3.356-7.5-7.495-7.5z"/><path d="m115.768 167.444h-69.859c-4.14 0-7.496 3.358-7.496 7.5s3.356 7.5 7.496 7.5h69.859c4.14 0 7.496-3.358 7.496-7.5s-3.356-7.5-7.496-7.5z"/></g></g></g></g></g><g><path d="m482.005 140.05v232.16c0 4.14-3.36 7.5-7.499 7.5h-165.164l-28.336 35.65c-1.42 1.79-3.579 2.84-5.869 2.84s-4.449-1.05-5.869-2.84l-28.336-35.65h-25.876c-12.578 0-22.806-10.23-22.806-22.8v-216.86c0-12.57 10.228-22.8 22.806-22.8h244.142c12.578 0 22.807 10.23 22.807 22.8z" fill="#09eaa3"/><path d="m482.005 140.05v232.16c0 4.14-3.36 7.5-7.499 7.5h-19.997c4.139 0 7.499-3.36 7.499-7.5v-232.16c0-12.57-10.228-22.8-22.806-22.8h19.997c12.577 0 22.806 10.23 22.806 22.8z" fill="#14bb87"/><g fill="#fff"><path d="m255.056 188.694h164.966c4.141 0 7.499-3.357 7.499-7.5s-3.357-7.5-7.499-7.5h-164.966c-4.141 0-7.499 3.357-7.499 7.5s3.357 7.5 7.499 7.5z"/><path d="m255.056 222.694h164.967c4.141 0 7.499-3.357 7.499-7.5s-3.357-7.5-7.499-7.5h-164.967c-4.141 0-7.499 3.357-7.499 7.5s3.357 7.5 7.499 7.5z"/><path d="m420.023 309.694h-34.017c-4.141 0-7.499 3.357-7.499 7.5s3.357 7.5 7.499 7.5h34.017c4.141 0 7.499-3.357 7.499-7.5s-3.358-7.5-7.499-7.5z"/><path d="m351.082 309.694h-96.026c-4.141 0-7.499 3.357-7.499 7.5s3.357 7.5 7.499 7.5h96.026c4.141 0 7.499-3.357 7.499-7.5s-3.358-7.5-7.499-7.5z"/><path d="m420.022 241.694h-90.515c-4.141 0-7.499 3.357-7.499 7.5s3.357 7.5 7.499 7.5h90.515c4.141 0 7.499-3.357 7.499-7.5s-3.358-7.5-7.499-7.5z"/><path d="m255.056 256.694h38.051c4.141 0 7.499-3.357 7.499-7.5s-3.357-7.5-7.499-7.5h-38.051c-4.141 0-7.499 3.357-7.499 7.5s3.357 7.5 7.499 7.5z"/><path d="m255.056 290.694h164.966c4.141 0 7.499-3.357 7.499-7.5s-3.357-7.5-7.499-7.5h-164.966c-4.141 0-7.499 3.357-7.499 7.5s3.357 7.5 7.499 7.5z"/></g></g><path d="m512 371.06c0 24.86-20.227 45.09-45.093 45.09-3.429 0-6.779-.39-9.988-1.12-20.067-4.55-35.094-22.54-35.094-43.97 0-21.44 15.028-39.43 35.094-43.98 3.21-.73 6.559-1.12 9.988-1.12 24.866 0 45.093 20.23 45.093 45.1z" fill="#ff6b81"/><path d="m512 371.06c0 24.86-20.227 45.09-45.093 45.09-3.429 0-6.779-.39-9.988-1.12 20.067-4.56 35.085-22.55 35.085-43.97 0-21.43-15.018-39.42-35.085-43.98 3.21-.73 6.559-1.12 9.988-1.12 24.866 0 45.093 20.23 45.093 45.1z" fill="#ed2061"/></g></svg>